<?xml version="1.0" encoding="UTF-8"?>
<svg version="1.1" xmlns="http://www.w3.org/2000/svg" width="122" height="40">
<path d="M0 0 C1.98 0 3.96 0 6 0 C6.33 5.61 6.66 11.22 7 17 C8.8975 15.123125 10.795 13.24625 12.75 11.3125 C13.34006836 10.73153564 13.93013672 10.15057129 14.53808594 9.55200195 C16.94745276 7.15524323 19.09667936 4.86919851 21.125 2.125 C23 -0 23 -0 25.140625 -0.48828125 C26.18476562 -0.40126953 26.18476562 -0.40126953 27.25 -0.3125 C29.10625 -0.1578125 29.10625 -0.1578125 31 0 C26.40525596 5.39882424 21.72323727 10.71333087 17 16 C21.19985177 21.74803242 25.65056328 27.23944626 30.2421875 32.6796875 C32 35 32 35 32 37 C29.08833904 37.61950233 27.79936498 37.8444154 25 37 C21.62188534 33.97868791 18.8617688 30.50366086 16 27 C14.37346889 25.28289639 12.69973227 23.6449022 11 22 C8.3867321 23.85457722 7.13365531 25.27526558 6.546875 28.45703125 C6.392616 30.25414856 6.26809117 32.05410667 6.17578125 33.85546875 C6 36 6 36 5 37 C3.35 37 1.7 37 0 37 C0 24.79 0 12.58 0 0 Z " fill="#FFFFFF" transform="translate(0,0)"/>
<path d="M0 0 C4.73474097 1.6996506 8.96167111 4.13659027 13.3125 6.625 C14.05306641 7.04523437 14.79363281 7.46546875 15.55664062 7.8984375 C17.37269011 8.92948495 19.18656533 9.96436046 21 11 C21 15.29 21 19.58 21 24 C20.34 24 19.68 24 19 24 C19 20.37 19 16.74 19 13 C17.02 12.34 15.04 11.68 13 11 C12.566875 12.11375 12.566875 12.11375 12.125 13.25 C11 16 11 16 9.96875 17.78125 C8.72416319 20.63175527 8.57694339 23.15353473 8.375 26.25 C8.30023438 27.32765625 8.22546875 28.4053125 8.1484375 29.515625 C8.09945312 30.33546875 8.05046875 31.1553125 8 32 C5.5 31.3125 5.5 31.3125 2 30 C1.29230469 29.73960938 0.58460937 29.47921875 -0.14453125 29.2109375 C-2.61502022 28.04468865 -4.17165661 27.04293769 -6 25 C-8.03204039 19.18023632 -7.92624667 14.13749231 -5.4765625 8.484375 C-3.77100257 5.54663504 -1.98870465 2.75244658 0 0 Z " fill="#FFFFFF" transform="translate(41,8)"/>
<path d="M0 0 C3.10806679 1.33202863 5.4498083 2.8996166 7 6 C7.08449628 7.7404417 7.10723024 9.48409722 7.09765625 11.2265625 C7.09443359 12.2578125 7.09121094 13.2890625 7.08789062 14.3515625 C7.07951172 15.43179687 7.07113281 16.51203125 7.0625 17.625 C7.05798828 18.71296875 7.05347656 19.8009375 7.04882812 20.921875 C7.03701776 23.61463789 7.02054778 26.30729188 7 29 C5.35 29 3.7 29 2 29 C1.67 28.34 1.34 27.68 1 27 C0.484375 27.33 -0.03125 27.66 -0.5625 28 C-3.89310774 29.36640318 -6.42646082 29.31346835 -10 29 C-12.87305972 27.59539303 -14.74510999 26.25489001 -17 24 C-17.33946509 20.33377703 -17.49005781 17.88677128 -15.6875 14.625 C-12.56634362 11.619442 -8.94725113 11.74871783 -4.8125 11.4375 C-3.72582031 11.35371094 -2.63914062 11.26992188 -1.51953125 11.18359375 C-0.68808594 11.12300781 0.14335938 11.06242187 1 11 C0.2250214 8.99084147 0.2250214 8.99084147 -1 7 C-6.33800002 5.53466666 -9.93929518 6.24424527 -15 8 C-15.33 6.35 -15.66 4.7 -16 3 C-10.76963624 -0.30338764 -6.02788188 -0.90857863 0 0 Z M-11 18 C-10.62095792 21.29075996 -10.62095792 21.29075996 -9 24 C-5.20697295 24.4310258 -3.42328835 24.25765378 -0.125 22.25 C2.45774902 20.03113367 2.45774902 20.03113367 2 16 C0.39620659 15.94583812 -1.20811406 15.90713362 -2.8125 15.875 C-3.70582031 15.85179687 -4.59914063 15.82859375 -5.51953125 15.8046875 C-8.25402714 15.81714173 -8.25402714 15.81714173 -11 18 Z " fill="#FFFFFF" transform="translate(115,8)"/>
<path d="M0 0 C0.61875 0.33 1.2375 0.66 1.875 1 C1.545 2.65 1.215 4.3 0.875 6 C0.03195313 5.91621094 -0.81109375 5.83242187 -1.6796875 5.74609375 C-2.77539062 5.64425781 -3.87109375 5.54242187 -5 5.4375 C-6.09054688 5.33308594 -7.18109375 5.22867187 -8.3046875 5.12109375 C-11.07652023 4.77360596 -11.07652023 4.77360596 -13.125 6 C-13.125 6.99 -13.125 7.98 -13.125 9 C-12.30515625 9.17015625 -11.4853125 9.3403125 -10.640625 9.515625 C-9.02414063 9.87914062 -9.02414063 9.87914062 -7.375 10.25 C-6.30765625 10.48203125 -5.2403125 10.7140625 -4.140625 10.953125 C-0.79840621 12.11337712 0.71250155 13.22624902 2.875 16 C3.4375 19.5 3.4375 19.5 2.875 23 C-0.73870399 26.71137167 -3.65762152 27.90051671 -8.8125 28.25 C-13.4077259 28.21589814 -16.92801353 26.79870849 -21.125 25 C-20.465 23.35 -19.805 21.7 -19.125 20 C-17.3615625 20.5259375 -17.3615625 20.5259375 -15.5625 21.0625 C-11.37808347 22.12911598 -8.32608938 21.87522695 -4.125 21 C-4.125 20.01 -4.125 19.02 -4.125 18 C-5.02863281 17.75765625 -5.93226562 17.5153125 -6.86328125 17.265625 C-8.63251953 16.76289062 -8.63251953 16.76289062 -10.4375 16.25 C-11.60925781 15.92515625 -12.78101562 15.6003125 -13.98828125 15.265625 C-17.30549457 13.9271728 -18.48732601 13.13396605 -20.125 10 C-20.1875 6.5 -20.1875 6.5 -19.125 3 C-13.79332869 -2.33167131 -6.84897241 -2.19167117 0 0 Z " fill="#FFFFFF" transform="translate(89.125,9)"/>
<path d="M0 0 C0.99 0 1.98 0 3 0 C3 2.64 3 5.28 3 8 C1.02 8.99 1.02 8.99 -1 10 C-1.02689216 8.52093108 -1.04634621 7.04172517 -1.0625 5.5625 C-1.07410156 4.73878906 -1.08570313 3.91507813 -1.09765625 3.06640625 C-1 1 -1 1 0 0 Z " fill="#FFFFFF" transform="translate(54,27)"/>
</svg>
